<svg xmlns="http://www.w3.org/2000/svg" width="56" height="55" viewBox="0 0 56 55" fill="none">
  <path d="M55.5 27.5C55.5 42.6915 43.1915 55 28 55C12.8085 55 0.5 42.6915 0.5 27.5C0.5 12.3085 12.8085 0 28 0C43.1915 0 55.5 12.3085 55.5 27.5ZM24.8175 42.0595L45.2208 21.6562C45.9083 20.9688 45.9083 19.8377 45.2208 19.1502L42.7147 16.6442C42.0272 15.9567 40.8962 15.9567 40.2087 16.6442L23.5645 33.2772L15.7913 25.504C15.1038 24.8165 13.9728 24.8165 13.2853 25.504L10.7792 28.0101C10.0917 28.6976 10.0917 29.8286 10.7792 30.5161L22.3115 42.0484C22.999 42.7359 24.13 42.7359 24.8175 42.0484V42.0595Z" fill="#132458"/>
</svg>