<svg xmlns="http://www.w3.org/2000/svg" width="17" height="14" viewBox="0 0 17 14" fill="none">
  <path d="M16.6307 3.19206L6.61371 12.8889C6.34094 13.1551 5.89987 13.1495 5.6271 12.8833L0.357459 7.70066C0.0846911 7.43445 0.0904947 7.00398 0.363263 6.73777L1.68067 5.46335C1.95344 5.19714 2.39451 5.20281 2.66728 5.46902L6.13782 8.88445L14.3441 0.943431C14.6168 0.67722 15.0579 0.682884 15.3307 0.949095L16.6365 2.23484C16.9092 2.50105 16.9034 2.93152 16.6307 3.19773V3.19206Z" fill="#132458"/>
  <path d="M16.6307 3.19206L6.61371 12.8889C6.34094 13.1551 5.89987 13.1495 5.6271 12.8833L0.357459 7.70066C0.0846911 7.43445 0.0904947 7.00398 0.363263 6.73777L1.68067 5.46335C1.95344 5.19714 2.39451 5.20281 2.66728 5.46902L6.13782 8.88445L14.3441 0.943431C14.6168 0.67722 15.0579 0.682884 15.3307 0.949095L16.6365 2.23484C16.9092 2.50105 16.9034 2.93152 16.6307 3.19773V3.19206Z" fill="black" fill-opacity="0.2"/>
</svg>