<svg xmlns="http://www.w3.org/2000/svg" width="14" height="9" viewBox="0 0 14 9" fill="none">
  <path fill-rule="evenodd" clip-rule="evenodd" d="M13.1444 8.09949C12.9164 8.33514 12.6073 8.4675 12.2851 8.4675C11.9628 8.4675 11.6538 8.33514 11.4258 8.09949L7.0157 3.53578L2.60565 8.09949C2.49433 8.22312 2.36008 8.32229 2.21092 8.39106C2.06175 8.45984 1.90073 8.49682 1.73746 8.49981C1.57418 8.50279 1.412 8.47171 1.26059 8.40842C1.10918 8.34513 0.971632 8.25092 0.856162 8.13143C0.740692 8.01194 0.649661 7.8696 0.588503 7.71291C0.527344 7.55622 0.497309 7.38839 0.50019 7.21943C0.503071 7.05046 0.538808 6.88383 0.60527 6.72947C0.671732 6.57511 0.767558 6.43619 0.887029 6.32098L6.15639 0.868018C6.38439 0.632365 6.69346 0.500001 7.0157 0.500001C7.33794 0.500001 7.64701 0.632365 7.87501 0.868018L13.1444 6.32098C13.3721 6.55693 13.5 6.87676 13.5 7.21023C13.5 7.54371 13.3721 7.86354 13.1444 8.09949Z" fill="#132458"/>
</svg>